# Aspose.3D Wavefront OBJ Exporter
# Copyright 2004-2024 Aspose Pty Ltd.
# File created: 02/12/2025 20:01:28

mtllib material.lib
g Arrow

#
# object Arrow
#

v -160 8.146034E-06 50
v 160 8.146034E-06 50
v -160 -8.146034E-06 -50
v 160 -8.146034E-06 -50
v -160 -50 1.1920929E-05
v 160 -50 1.1920929E-05
v -160 50 -1.1920929E-05
v 160 50 -1.1920929E-05
v -140 -49.999992 50.000008
v -140 50.000008 49.999992
v -140 -50.000008 -49.999992
v -140 49.999992 -50.000008
# 12 vertices

vn 0 1 -1.6292068E-07
vn 0 1 -1.6292068E-07
vn 0 1 -1.6292068E-07
vn 0 1 -1.6292068E-07
vn 0 3.1391647E-07 1
vn 0 3.1391647E-07 1
vn 0 3.1391647E-07 1
vn 0 3.1391647E-07 1
vn -1 0 0
vn -1 0 0
vn -1 0 0
vn -1 0 0
# 12 vertex normals

vt 0 0.84375 0
vt 0.5 1 0
vt 0.5 1 0
vt 0.5 0.84375 0
vt 0 1 0
vt 0.15625 0.84375 0
vt 0.15625 0.6875 0
vt 0 0.84375 0
vt 0.5 0.84375 0
vt 0 1 0
vt 0 0.6875 0
vt 0 0.84375 0
# 12 texture coords

usemtl Arrow
s 1
f 1/1/1 2/9/2 4/2/3 3/10/4
f 5/8/5 6/4/6 8/3/7 7/5/8
f 9/11/9 10/7/10 12/6/11 11/12/12
#3 polygons

